<svg xmlns="http://www.w3.org/2000/svg" viewBox="0 0 372.38 223.76"><defs><style>.cls-1{fill:#26acb8;}.cls-2{font-size:24px;fill:#fff;font-family:MovementBold, "N.O.- Movement";}</style></defs><g id="Layer_2" data-name="Layer 2"><g id="Layer_1-2" data-name="Layer 1"><rect class="cls-1" x="81.05" width="26.83" height="26.83"/><polygon class="cls-1" points="295.73 0 295.73 0.2 269.1 26.83 134.72 26.83 134.72 0 295.73 0"/><polygon class="cls-1" points="371.83 0 210.82 161.01 172.87 161.01 295.73 38.15 307.05 26.83 322.56 11.32 333.88 0 371.83 0"/><path class="cls-1" d="M107.88,53.67V108a53.68,53.68,0,0,1-80.5,45.79A53.67,53.67,0,0,1,54.22,53.67V80.5a26.84,26.84,0,1,0,26.83,26.84V53.67Z"/><polygon class="cls-1" points="242.06 53.67 242.06 53.87 215.43 80.5 134.72 80.5 134.72 53.67 242.06 53.67"/><polygon class="cls-1" points="188.39 107.34 188.39 107.54 161.76 134.17 134.72 134.17 134.72 107.34 188.39 107.34"/><text class="cls-2" transform="translate(0 217.45)">idev university</text></g></g></svg>