<svg xmlns="http://www.w3.org/2000/svg" viewBox="0 0 371.28 161.01"><defs><style>.cls-1{fill:#26acb8;}</style></defs><g id="Layer_2" data-name="Layer 2"><g id="Layer_1-2" data-name="Layer 1"><rect class="cls-1" x="80.5" width="26.83" height="26.83"/><polygon class="cls-1" points="295.18 0 295.18 0.2 268.55 26.83 134.17 26.83 134.17 0 295.18 0"/><polygon class="cls-1" points="371.28 0 210.27 161.01 172.32 161.01 295.18 38.15 306.5 26.83 322.01 11.32 333.33 0 371.28 0"/><path class="cls-1" d="M107.33,53.67V108a53.68,53.68,0,0,1-80.5,45.79A53.67,53.67,0,0,1,53.67,53.67V80.5A26.84,26.84,0,1,0,80.5,107.34V53.67Z"/><polygon class="cls-1" points="241.51 53.67 241.51 53.87 214.88 80.5 134.17 80.5 134.17 53.67 241.51 53.67"/><polygon class="cls-1" points="187.84 107.34 187.84 107.54 161.21 134.17 134.17 134.17 134.17 107.34 187.84 107.34"/></g></g></svg>